<svg width="38" height="38" viewBox="0 0 38 38" fill="none" xmlns="http://www.w3.org/2000/svg">
<path id="primary" d="M32.4167 19C32.4167 21.6536 31.6298 24.2475 30.1556 26.4539C28.6813 28.6603 26.5859 30.3799 24.1343 31.3954C21.6828 32.4109 18.9851 32.6766 16.3825 32.1589C13.78 31.6412 11.3893 30.3634 9.51298 28.487C7.63663 26.6107 6.35882 24.22 5.84113 21.6175C5.32345 19.0149 5.58914 16.3172 6.60462 13.8657C7.62009 11.4141 9.33974 9.31869 11.5461 7.84445C13.7525 6.37021 16.3464 5.58333 19 5.58333M32.4167 19C32.4167 15.4417 31.0031 12.0291 28.487 9.51298C25.9709 6.99687 22.5583 5.58333 19 5.58333M32.4167 19H36.25M19 5.58333V1.75M19 36.25V32.4167M1.75 19H5.58333M24.75 19C24.75 17.8628 24.4128 16.7511 23.7809 15.8055C23.1491 14.8599 22.2511 14.1229 21.2004 13.6877C20.1498 13.2525 18.9936 13.1386 17.8782 13.3605C16.7628 13.5823 15.7383 14.13 14.9341 14.9341C14.13 15.7383 13.5823 16.7628 13.3605 17.8782C13.1386 18.9936 13.2525 20.1498 13.6877 21.2004C14.1229 22.2511 14.8599 23.1491 15.8055 23.7809C16.7511 24.4128 17.8628 24.75 19 24.75C20.525 24.75 21.9875 24.1442 23.0659 23.0659C24.1442 21.9875 24.75 20.525 24.75 19Z" stroke="white" stroke-width="2.5" stroke-linecap="round" stroke-linejoin="round"/>
</svg>
