<svg width="15" height="15" viewBox="0 0 15 15" fill="none" xmlns="http://www.w3.org/2000/svg">
<path d="M9.71246 7.05621L6.17496 3.52496C6.11686 3.46638 6.04773 3.41989 5.97157 3.38815C5.89541 3.35642 5.81372 3.34009 5.73121 3.34009C5.6487 3.34009 5.56701 3.35642 5.49085 3.38815C5.41469 3.41989 5.34556 3.46638 5.28746 3.52496C5.17105 3.64206 5.10571 3.80047 5.10571 3.96559C5.10571 4.1307 5.17105 4.28911 5.28746 4.40621L8.38121 7.53121L5.28746 10.625C5.17105 10.7421 5.10571 10.9005 5.10571 11.0656C5.10571 11.2307 5.17105 11.3891 5.28746 11.5062C5.34534 11.5653 5.41437 11.6122 5.49054 11.6444C5.56671 11.6766 5.64852 11.6934 5.73121 11.6937C5.8139 11.6934 5.8957 11.6766 5.97187 11.6444C6.04805 11.6122 6.11707 11.5653 6.17496 11.5062L9.71246 7.97496C9.7759 7.91644 9.82653 7.8454 9.86116 7.76634C9.89579 7.68728 9.91367 7.6019 9.91367 7.51559C9.91367 7.42927 9.89579 7.34389 9.86116 7.26483C9.82653 7.18577 9.7759 7.11474 9.71246 7.05621Z" fill="#A0A0A0"/>
</svg>
