<svg width="24" height="24" viewBox="0 0 24 24" fill="none" xmlns="http://www.w3.org/2000/svg">
<g id="Layer_1" clip-path="url(#clip0_183_849)">
<path id="Vector" d="M11.04 19.61H1.5V3.39001H20.59V9.11001" stroke="#666666" stroke-width="1.5" stroke-miterlimit="10"/>
<path id="Vector_2" d="M11.0498 0.52002V5.30002" stroke="#666666" stroke-width="1.5" stroke-miterlimit="10"/>
<path id="Vector_3" d="M6.27002 0.52002V5.30002" stroke="#666666" stroke-width="1.5" stroke-miterlimit="10"/>
<path id="Vector_4" d="M15.8198 0.52002V5.30002" stroke="#666666" stroke-width="1.5" stroke-miterlimit="10"/>
<path id="Vector_5" d="M8.18018 8.16003H10.0902" stroke="#666666" stroke-width="1.5" stroke-miterlimit="10"/>
<path id="Vector_6" d="M12 8.16003H13.91" stroke="#666666" stroke-width="1.5" stroke-miterlimit="10"/>
<path id="Vector_7" d="M15.8198 8.16003H17.7298" stroke="#666666" stroke-width="1.5" stroke-miterlimit="10"/>
<path id="Vector_8" d="M4.35986 11.98H6.26986" stroke="#666666" stroke-width="1.5" stroke-miterlimit="10"/>
<path id="Vector_9" d="M8.18018 11.98H10.0902" stroke="#666666" stroke-width="1.5" stroke-miterlimit="10"/>
<path id="Vector_10" d="M4.35986 15.8H6.26986" stroke="#666666" stroke-width="1.5" stroke-miterlimit="10"/>
<path id="Vector_11" d="M8.18018 15.8H10.0902" stroke="#666666" stroke-width="1.5" stroke-miterlimit="10"/>
<path id="Vector_12" d="M12 11.98H13.91" stroke="#666666" stroke-width="1.5" stroke-miterlimit="10"/>
<path id="Vector_13" d="M17.73 22.48C20.3644 22.48 22.5 20.7697 22.5 18.66C22.5 16.5502 20.3644 14.84 17.73 14.84C15.0956 14.84 12.96 16.5502 12.96 18.66C12.96 20.7697 15.0956 22.48 17.73 22.48Z" stroke="#666666" stroke-width="1.5" stroke-miterlimit="10"/>
<path id="Vector_14" d="M20.1101 11H21.5401V12.43C21.5401 13.0639 21.2883 13.6718 20.84 14.12C20.3918 14.5682 19.7839 14.82 19.1501 14.82H17.7301V13.41C17.7274 13.0953 17.787 12.7832 17.9053 12.4916C18.0236 12.1999 18.1983 11.9345 18.4194 11.7106C18.6406 11.4867 18.9038 11.3086 19.1939 11.1867C19.484 11.0648 19.7954 11.0013 20.1101 11Z" stroke="#666666" stroke-width="1.5" stroke-miterlimit="10"/>
<path id="Vector_15" d="M14.8599 11C15.2371 10.9987 15.6109 11.072 15.9597 11.2158C16.3085 11.3596 16.6254 11.5709 16.8922 11.8377C17.159 12.1044 17.3703 12.4214 17.5141 12.7702C17.6579 13.119 17.7312 13.4928 17.7299 13.87V14.82" stroke="#666666" stroke-width="1.5" stroke-miterlimit="10"/>
</g>
<defs>
<clipPath id="clip0_183_849">
<rect width="24" height="24" fill="white"/>
</clipPath>
</defs>
</svg>
