<svg width="34" height="38" viewBox="0 0 34 38" fill="none" xmlns="http://www.w3.org/2000/svg">
<path d="M12.0417 24.5C12.0417 25.3284 12.7132 26 13.5417 26C14.3701 26 15.0417 25.3284 15.0417 24.5H12.0417ZM15.0417 19.125C15.0417 18.2965 14.3701 17.625 13.5417 17.625C12.7132 17.625 12.0417 18.2965 12.0417 19.125H15.0417ZM19.2083 24.5C19.2083 25.3284 19.8799 26 20.7083 26C21.5368 26 22.2083 25.3284 22.2083 24.5H19.2083ZM22.2083 19.125C22.2083 18.2965 21.5368 17.625 20.7083 17.625C19.8799 17.625 19.2083 18.2965 19.2083 19.125H22.2083ZM12.6405 2.56719C12.0348 3.13234 12.0019 4.08152 12.567 4.68724C13.1322 5.29296 14.0813 5.32586 14.6871 4.76071L12.6405 2.56719ZM19.5629 4.76071C20.1687 5.32586 21.1178 5.29296 21.683 4.68724C22.2481 4.08152 22.2152 3.13234 21.6095 2.56719L19.5629 4.76071ZM15.0417 24.5V19.125H12.0417V24.5H15.0417ZM22.2083 24.5V19.125H19.2083V24.5H22.2083ZM1 11.6666H33.25V8.66664H1V11.6666ZM23.875 31.9583H10.375V34.9583H23.875V31.9583ZM7.875 29.4583V14.1666H4.875V29.4583H7.875ZM2.375 8.66664H1V11.6666H2.375V8.66664ZM33.25 8.66664H31.875V11.6666H33.25V8.66664ZM26.375 14.1666V29.4583H29.375V14.1666H26.375ZM31.875 8.66664C30.9746 8.66664 30.1484 8.66346 29.4806 8.75324C28.7696 8.84883 28.0182 9.07372 27.4001 9.69177L29.5214 11.8131C29.5224 11.8122 29.5224 11.8122 29.5217 11.8128C29.521 11.8133 29.5205 11.8137 29.5207 11.8136C29.5208 11.8135 29.5225 11.8124 29.5263 11.8104C29.5302 11.8083 29.5368 11.8051 29.5469 11.801C29.5905 11.783 29.6872 11.7525 29.8803 11.7265C30.3018 11.6698 30.8898 11.6666 31.875 11.6666V8.66664ZM29.375 14.1666C29.375 13.1814 29.3782 12.5934 29.4348 12.172C29.4608 11.9789 29.4914 11.8821 29.5093 11.8386C29.5135 11.8285 29.5167 11.8219 29.5187 11.818C29.5207 11.8142 29.5218 11.8125 29.5219 11.8123C29.522 11.8122 29.5217 11.8126 29.5211 11.8133C29.5206 11.814 29.5205 11.814 29.5214 11.8131L27.4001 9.69177C26.7821 10.3098 26.5572 11.0613 26.4616 11.7722C26.3718 12.44 26.375 13.2662 26.375 14.1666H29.375ZM7.875 14.1666C7.875 13.2662 7.87819 12.44 7.7884 11.7722C7.69281 11.0613 7.46792 10.3098 6.84987 9.69177L4.72855 11.8131C4.72947 11.814 4.72942 11.814 4.72886 11.8133C4.72829 11.8126 4.72798 11.8122 4.72807 11.8123C4.72818 11.8125 4.72929 11.8142 4.73128 11.818C4.7333 11.8219 4.73653 11.8285 4.74068 11.8386C4.7586 11.8821 4.78919 11.9789 4.81515 12.172C4.87181 12.5934 4.875 13.1814 4.875 14.1666H7.875ZM2.375 11.6666C3.36021 11.6666 3.94823 11.6698 4.36967 11.7265C4.56279 11.7525 4.65951 11.783 4.70307 11.801C4.71316 11.8051 4.71979 11.8083 4.72366 11.8104C4.72747 11.8124 4.72917 11.8135 4.72933 11.8136C4.72947 11.8137 4.72899 11.8133 4.7283 11.8128C4.72761 11.8122 4.72764 11.8122 4.72855 11.8131L6.84987 9.69177C6.23183 9.07372 5.48038 8.84883 4.76942 8.75324C4.1016 8.66346 3.2754 8.66664 2.375 8.66664V11.6666ZM10.375 31.9583C9.38979 31.9583 8.80177 31.9551 8.38033 31.8985C8.18721 31.8725 8.09049 31.8419 8.04693 31.824C8.03684 31.8198 8.03021 31.8166 8.02634 31.8146C8.02253 31.8126 8.02083 31.8115 8.02067 31.8114C8.02053 31.8113 8.02101 31.8116 8.0217 31.8122C8.02239 31.8127 8.02236 31.8128 8.02145 31.8119L5.90013 33.9332C6.51817 34.5512 7.26962 34.7761 7.98058 34.8717C8.64839 34.9615 9.4746 34.9583 10.375 34.9583V31.9583ZM4.875 29.4583C4.875 30.3587 4.87181 31.1849 4.9616 31.8527C5.05719 32.5637 5.28208 33.3151 5.90013 33.9332L8.02145 31.8119C8.02053 31.8109 8.02058 31.8109 8.02114 31.8116C8.02171 31.8123 8.02202 31.8128 8.02193 31.8126C8.02182 31.8125 8.02071 31.8108 8.01872 31.807C8.0167 31.8031 8.01347 31.7965 8.00932 31.7864C7.9914 31.7428 7.96081 31.6461 7.93485 31.453C7.87819 31.0315 7.875 30.4435 7.875 29.4583H4.875ZM23.875 34.9583C24.7754 34.9583 25.6016 34.9615 26.2694 34.8717C26.9804 34.7761 27.7318 34.5512 28.3499 33.9332L26.2286 31.8119C26.2276 31.8128 26.2276 31.8127 26.2283 31.8122C26.229 31.8116 26.2295 31.8113 26.2293 31.8114C26.2292 31.8115 26.2275 31.8126 26.2237 31.8146C26.2198 31.8166 26.2132 31.8198 26.2031 31.824C26.1595 31.8419 26.0628 31.8725 25.8697 31.8985C25.4482 31.9551 24.8602 31.9583 23.875 31.9583V34.9583ZM26.375 29.4583C26.375 30.4435 26.3718 31.0315 26.3152 31.453C26.2892 31.6461 26.2586 31.7428 26.2407 31.7864C26.2365 31.7965 26.2333 31.8031 26.2313 31.807C26.2293 31.8108 26.2282 31.8125 26.2281 31.8126C26.228 31.8128 26.2283 31.8123 26.2289 31.8116C26.2294 31.8109 26.2295 31.8109 26.2286 31.8119L28.3499 33.9332C28.9679 33.3151 29.1928 32.5637 29.2884 31.8527C29.3782 31.1849 29.375 30.3587 29.375 29.4583H26.375ZM14.6871 4.76071C14.623 4.82046 14.5794 4.84294 14.5857 4.83944C14.5887 4.83777 14.6147 4.82415 14.6712 4.803C14.7864 4.75988 14.9692 4.70753 15.2262 4.65824L14.661 1.71196C14.2921 1.78272 13.9371 1.87455 13.6199 1.99323C13.3286 2.10223 12.9526 2.27593 12.6405 2.56719L14.6871 4.76071ZM15.2262 4.65824C15.74 4.55967 16.4096 4.49998 17.125 4.49998V1.49998C16.2627 1.49998 15.3988 1.57042 14.661 1.71196L15.2262 4.65824ZM17.125 4.49998C17.8404 4.49998 18.51 4.55967 19.0238 4.65824L19.589 1.71196C18.8512 1.57042 17.9873 1.49998 17.125 1.49998V4.49998ZM19.0238 4.65824C19.2808 4.70753 19.4636 4.75988 19.5788 4.803C19.6353 4.82415 19.6613 4.83777 19.6643 4.83944C19.6706 4.84294 19.627 4.82046 19.5629 4.76071L21.6095 2.56719C21.2973 2.27593 20.9214 2.10223 20.6301 1.99322C20.3129 1.87455 19.9578 1.78272 19.589 1.71196L19.0238 4.65824ZM3.13087 37.4854L33.6309 2.48522L31.3692 0.514291L0.869134 35.5145L3.13087 37.4854Z" fill="white"/>
</svg>
