<svg width="30" height="30" viewBox="0 0 30 30" fill="none" xmlns="http://www.w3.org/2000/svg">
<path d="M22.5 3.75H7.5C6.80964 3.75 6.25 4.30964 6.25 5V25C6.25 25.6904 6.80964 26.25 7.5 26.25H22.5C23.1904 26.25 23.75 25.6904 23.75 25V5C23.75 4.30964 23.1904 3.75 22.5 3.75Z" stroke="white" stroke-width="2.5" stroke-linecap="round" stroke-linejoin="round"/>
<path d="M11.25 21.25H18.75M11.25 16.25H18.75M11.25 7.5C11.25 7.83152 11.3817 8.14946 11.6161 8.38388C11.8505 8.6183 12.1685 8.75 12.5 8.75H17.5C17.8315 8.75 18.1495 8.6183 18.3839 8.38388C18.6183 8.14946 18.75 7.83152 18.75 7.5V3.75H11.25V7.5Z" stroke="white" stroke-width="2.5" stroke-linecap="round" stroke-linejoin="round"/>
</svg>
