<svg width="15" height="17" viewBox="0 0 15 17" fill="none" xmlns="http://www.w3.org/2000/svg">
<path id="Vector" d="M7.5 2.42857C6.01664 2.42857 4.56659 2.85587 3.33323 3.65644C2.09986 4.457 1.13856 5.59487 0.570907 6.92616C0.00324964 8.25745 -0.145275 9.72237 0.144114 11.1357C0.433503 12.5489 1.14781 13.8471 2.1967 14.8661C3.2456 15.885 4.58197 16.5789 6.03683 16.86C7.49168 17.1411 8.99968 16.9968 10.3701 16.4454C11.7406 15.894 12.9119 14.9601 13.736 13.762C14.5601 12.5639 15 11.1553 15 9.71428C14.9977 7.78267 14.2068 5.9308 12.8008 4.56495C11.3948 3.19909 9.48843 2.43078 7.5 2.42857ZM7.5 15.7857C6.26387 15.7857 5.0555 15.4296 4.02769 14.7625C2.99988 14.0954 2.1988 13.1471 1.72576 12.0377C1.25271 10.9283 1.12894 9.70755 1.3701 8.52981C1.61125 7.35207 2.20651 6.27024 3.08059 5.42114C3.95466 4.57203 5.06831 3.99378 6.28069 3.75952C7.49307 3.52525 8.74973 3.64548 9.89177 4.10502C11.0338 4.56455 12.0099 5.34274 12.6967 6.34118C13.3834 7.33962 13.75 8.51347 13.75 9.71428C13.7481 11.324 13.0891 12.8672 11.9174 14.0054C10.7457 15.1437 9.15703 15.7839 7.5 15.7857ZM11.0672 6.24902C11.1253 6.3054 11.1714 6.37236 11.2029 6.44607C11.2343 6.51978 11.2505 6.59878 11.2505 6.67857C11.2505 6.75836 11.2343 6.83736 11.2029 6.91107C11.1714 6.98478 11.1253 7.05174 11.0672 7.10812L7.94219 10.1438C7.88412 10.2002 7.81518 10.245 7.73931 10.2755C7.66344 10.3061 7.58212 10.3218 7.5 10.3218C7.41788 10.3218 7.33656 10.3061 7.26069 10.2755C7.18482 10.245 7.11588 10.2002 7.05781 10.1438C6.99975 10.0874 6.95368 10.0205 6.92226 9.94676C6.89083 9.87305 6.87465 9.79406 6.87465 9.71428C6.87465 9.63451 6.89083 9.55551 6.92226 9.48181C6.95368 9.40811 6.99975 9.34114 7.05781 9.28473L10.1828 6.24902C10.2409 6.19257 10.3098 6.14778 10.3857 6.11723C10.4615 6.08668 10.5429 6.07095 10.625 6.07095C10.7071 6.07095 10.7885 6.08668 10.8643 6.11723C10.9402 6.14778 11.0091 6.19257 11.0672 6.24902ZM5 0.607143C5 0.446118 5.06585 0.291689 5.18306 0.177828C5.30027 0.0639666 5.45924 0 5.625 0H9.375C9.54076 0 9.69973 0.0639666 9.81694 0.177828C9.93415 0.291689 10 0.446118 10 0.607143C10 0.768167 9.93415 0.922596 9.81694 1.03646C9.69973 1.15032 9.54076 1.21429 9.375 1.21429H5.625C5.45924 1.21429 5.30027 1.15032 5.18306 1.03646C5.06585 0.922596 5 0.768167 5 0.607143Z" fill="#00C4B8"/>
</svg>
