<svg width="24" height="24" viewBox="0 0 24 24" fill="none" xmlns="http://www.w3.org/2000/svg">
<g id="coin">
<path id="primary" d="M14 15.12C13.742 15.3924 13.4322 15.6105 13.0887 15.7616C12.7453 15.9127 12.3752 15.9937 12 16C10.23 16 8.80005 14.21 8.80005 12C8.80005 9.79 10.23 8 12 8C12.4037 8.00936 12.8008 8.10318 13.166 8.27542C13.5311 8.44765 13.8561 8.69448 14.12 9" stroke="#666666" stroke-width="2" stroke-linecap="round" stroke-linejoin="round"/>
<path id="primary_2" d="M8 12H10M21 12C21 13.78 20.4722 15.5201 19.4832 17.0001C18.4943 18.4802 17.0887 19.6337 15.4442 20.3149C13.7996 20.9961 11.99 21.1743 10.2442 20.8271C8.49836 20.4798 6.89472 19.6226 5.63604 18.364C4.37737 17.1053 3.5202 15.5016 3.17294 13.7558C2.82567 12.01 3.0039 10.2004 3.68509 8.55585C4.36628 6.91131 5.51983 5.50571 6.99987 4.51677C8.47991 3.52784 10.22 3 12 3C14.387 3 16.6761 3.94821 18.364 5.63604C20.0518 7.32387 21 9.61305 21 12Z" stroke="#666666" stroke-width="2" stroke-linecap="round" stroke-linejoin="round"/>
</g>
</svg>
