<svg width="22" height="22" viewBox="0 0 22 22" fill="none" xmlns="http://www.w3.org/2000/svg">
<g id="coin">
<path id="primary" d="M12.8333 13.86C12.5968 14.1096 12.3128 14.3096 11.998 14.4481C11.6831 14.5866 11.3439 14.6609 11 14.6666C9.37748 14.6666 8.06665 13.0258 8.06665 11C8.06665 8.97415 9.37748 7.33331 11 7.33331C11.37 7.34189 11.734 7.42789 12.0688 7.58578C12.4035 7.74366 12.7014 7.96992 12.9433 8.24998" stroke="#666666" stroke-width="2" stroke-linecap="round" stroke-linejoin="round"/>
<path id="primary_2" d="M7.33334 11H9.16667M19.25 11C19.25 12.6317 18.7662 14.2267 17.8596 15.5835C16.9531 16.9402 15.6646 17.9976 14.1571 18.622C12.6497 19.2464 10.9909 19.4098 9.39051 19.0915C7.79017 18.7732 6.32016 17.9874 5.16637 16.8336C4.01259 15.6798 3.22685 14.2098 2.90853 12.6095C2.5902 11.0092 2.75357 9.35035 3.378 7.84286C4.00242 6.33537 5.05984 5.0469 6.41655 4.14038C7.77325 3.23385 9.36831 2.75 11 2.75C13.188 2.75 15.2865 3.61919 16.8336 5.16637C18.3808 6.71354 19.25 8.81196 19.25 11Z" stroke="#666666" stroke-width="2" stroke-linecap="round" stroke-linejoin="round"/>
</g>
</svg>
