<svg width="18" height="18" viewBox="0 0 18 18" fill="none" xmlns="http://www.w3.org/2000/svg">
<path id="primary" d="M17 13.4444V16.1111C17 16.3469 16.8946 16.573 16.7071 16.7397C16.5196 16.9064 16.2652 17 16 17H2C1.73478 17 1.48043 16.9064 1.29289 16.7397C1.10536 16.573 1 16.3469 1 16.1111V13.4444M2.65 7.72L4 6.33333C4.08536 6.24461 4.18954 6.17171 4.30659 6.11878C4.42365 6.06585 4.55128 6.03393 4.68222 6.02485C4.81315 6.01577 4.94481 6.02971 5.06968 6.06586C5.19456 6.10201 5.3102 6.15968 5.41 6.23556L7 7.52444V1H11V7.52444L12.64 6.27111C12.8365 6.11355 13.0952 6.03163 13.3595 6.04329C13.6237 6.05495 13.8721 6.15925 14.05 6.33333L15.35 7.68444C15.4465 7.77439 15.5208 7.88134 15.5679 7.99839C15.6151 8.11543 15.6341 8.23996 15.6237 8.36394C15.6134 8.48792 15.5739 8.60859 15.5078 8.71815C15.4417 8.82771 15.3504 8.92373 15.24 9L9.65 13.2578C9.46887 13.3955 9.23835 13.4712 9 13.4712C8.76165 13.4712 8.53113 13.3955 8.35 13.2578L2.76 9C2.65574 8.92387 2.56989 8.82976 2.50763 8.72336C2.44536 8.61696 2.40796 8.50046 2.39769 8.38087C2.38741 8.26128 2.40447 8.14108 2.44783 8.0275C2.49119 7.91393 2.55996 7.80933 2.65 7.72Z" stroke="#666666" stroke-width="2" stroke-linecap="round" stroke-linejoin="round"/>
</svg>
