<svg width="26" height="16" viewBox="0 0 26 16" fill="none" xmlns="http://www.w3.org/2000/svg">
<path id="Vector" d="M25.1875 7.2H24.375V4C24.375 3.57565 24.2038 3.16869 23.899 2.86863C23.5943 2.56857 23.181 2.4 22.75 2.4H21.125V1.6C21.125 1.17565 20.9538 0.768687 20.649 0.468629C20.3443 0.168571 19.931 0 19.5 0H17.0625C16.6315 0 16.2182 0.168571 15.9135 0.468629C15.6087 0.768687 15.4375 1.17565 15.4375 1.6V7.2H10.5625V1.6C10.5625 1.17565 10.3913 0.768687 10.0865 0.468629C9.7818 0.168571 9.36848 0 8.9375 0H6.5C6.06902 0 5.6557 0.168571 5.35095 0.468629C5.0462 0.768687 4.875 1.17565 4.875 1.6V2.4H3.25C2.81902 2.4 2.4057 2.56857 2.10095 2.86863C1.7962 3.16869 1.625 3.57565 1.625 4V7.2H0.8125C0.597012 7.2 0.390349 7.28429 0.237976 7.43431C0.0856024 7.58434 0 7.78783 0 8C0 8.21217 0.0856024 8.41566 0.237976 8.56569C0.390349 8.71572 0.597012 8.8 0.8125 8.8H1.625V12C1.625 12.4243 1.7962 12.8313 2.10095 13.1314C2.4057 13.4314 2.81902 13.6 3.25 13.6H4.875V14.4C4.875 14.8243 5.0462 15.2313 5.35095 15.5314C5.6557 15.8314 6.06902 16 6.5 16H8.9375C9.36848 16 9.7818 15.8314 10.0865 15.5314C10.3913 15.2313 10.5625 14.8243 10.5625 14.4V8.8H15.4375V14.4C15.4375 14.8243 15.6087 15.2313 15.9135 15.5314C16.2182 15.8314 16.6315 16 17.0625 16H19.5C19.931 16 20.3443 15.8314 20.649 15.5314C20.9538 15.2313 21.125 14.8243 21.125 14.4V13.6H22.75C23.181 13.6 23.5943 13.4314 23.899 13.1314C24.2038 12.8313 24.375 12.4243 24.375 12V8.8H25.1875C25.403 8.8 25.6097 8.71572 25.762 8.56569C25.9144 8.41566 26 8.21217 26 8C26 7.78783 25.9144 7.58434 25.762 7.43431C25.6097 7.28429 25.403 7.2 25.1875 7.2ZM3.25 12V4H4.875V12H3.25ZM8.9375 14.4H6.5V1.6H8.9375V14.4ZM19.5 14.4H17.0625V1.6H19.5V12.782C19.5 12.788 19.5 12.794 19.5 12.8C19.5 12.806 19.5 12.812 19.5 12.818V14.4ZM22.75 12H21.125V4H22.75V12Z" fill="#00C4B8"/>
</svg>
