<svg width="18" height="19" viewBox="0 0 18 19" fill="none" xmlns="http://www.w3.org/2000/svg">
<g id="agenda">
<path id="primary" d="M9 2.50024V7.18024L7.5 6.40024L6 7.18024V2.50024H9ZM14.25 15.7602V3.28024C14.25 3.07338 14.171 2.87498 14.0303 2.7287C13.8897 2.58242 13.6989 2.50024 13.5 2.50024H3.75C3.55109 2.50024 3.36032 2.58242 3.21967 2.7287C3.07902 2.87498 3 3.07338 3 3.28024V15.7602C3 15.9671 3.07902 16.1655 3.21967 16.3118C3.36032 16.4581 3.55109 16.5402 3.75 16.5402H13.5C13.6989 16.5402 13.8897 16.4581 14.0303 16.3118C14.171 16.1655 14.25 15.9671 14.25 15.7602ZM15.75 5.62024H14.25V7.18024H15.75V5.62024ZM15.75 10.3002H14.25V11.8602H15.75V10.3002Z" stroke="white" stroke-width="1.5" stroke-linecap="round" stroke-linejoin="round"/>
</g>
</svg>
