<svg width="17" height="15" viewBox="0 0 17 15" fill="none" xmlns="http://www.w3.org/2000/svg">
<path id="Vector" d="M14.3857 9.78261C13.8059 9.78316 13.2425 9.97552 12.784 10.3296C12.3255 10.6836 11.9977 11.1794 11.8519 11.7391H3.92338C3.22968 11.7391 2.5644 11.4643 2.07388 10.9751C1.58336 10.4858 1.30779 9.8223 1.30779 9.13043C1.30779 8.43857 1.58336 7.77503 2.07388 7.28581C2.5644 6.79658 3.22968 6.52174 3.92338 6.52174H11.7701C12.6373 6.52174 13.4689 6.17818 14.082 5.56665C14.6952 4.95512 15.0396 4.12571 15.0396 3.26087C15.0396 2.39603 14.6952 1.56662 14.082 0.955087C13.4689 0.343555 12.6373 0 11.7701 0H3.92338C3.74996 0 3.58364 0.0687111 3.46101 0.191017C3.33838 0.313324 3.26948 0.479207 3.26948 0.652174C3.26948 0.825141 3.33838 0.991024 3.46101 1.11333C3.58364 1.23564 3.74996 1.30435 3.92338 1.30435H11.7701C12.2904 1.30435 12.7894 1.51048 13.1573 1.8774C13.5252 2.24432 13.7318 2.74197 13.7318 3.26087C13.7318 3.77977 13.5252 4.27742 13.1573 4.64434C12.7894 5.01126 12.2904 5.21739 11.7701 5.21739H3.92338C2.88284 5.21739 1.88491 5.62966 1.14913 6.3635C0.413355 7.09733 0 8.09263 0 9.13043C0 10.1682 0.413355 11.1635 1.14913 11.8974C1.88491 12.6312 2.88284 13.0435 3.92338 13.0435H11.8519C11.9742 13.5158 12.2268 13.9445 12.5811 14.2809C12.9354 14.6172 13.3772 14.8478 13.8563 14.9463C14.3354 15.0448 14.8325 15.0073 15.2913 14.8382C15.7501 14.669 16.1522 14.3749 16.4518 13.9893C16.7514 13.6037 16.9367 13.142 16.9864 12.6567C17.0362 12.1714 16.9485 11.6818 16.7333 11.2437C16.5181 10.8056 16.1841 10.4365 15.7691 10.1782C15.3542 9.9199 14.8749 9.78286 14.3857 9.78261ZM14.3857 13.6957C14.1271 13.6957 13.8742 13.6192 13.6592 13.4758C13.4441 13.3325 13.2765 13.1288 13.1775 12.8905C13.0785 12.6521 13.0526 12.3899 13.1031 12.1368C13.1535 11.8838 13.2781 11.6514 13.461 11.469C13.6439 11.2866 13.8769 11.1623 14.1306 11.112C14.3843 11.0617 14.6472 11.0875 14.8862 11.1862C15.1252 11.285 15.3294 11.4521 15.4731 11.6666C15.6168 11.8811 15.6935 12.1333 15.6935 12.3913C15.6935 12.7372 15.5557 13.069 15.3105 13.3136C15.0652 13.5582 14.7326 13.6957 14.3857 13.6957Z" fill="#00C4B8"/>
</svg>
