<svg width="15" height="16" viewBox="0 0 15 16" fill="none" xmlns="http://www.w3.org/2000/svg">
<g id="Vector">
<path id="Vector_2" d="M14.6484 4.20318L11.2974 0.851555C11.186 0.7401 11.0537 0.651688 10.908 0.591367C10.7624 0.531047 10.6064 0.5 10.4488 0.5C10.2911 0.5 10.1351 0.531047 9.98946 0.591367C9.84385 0.651688 9.71155 0.7401 9.60012 0.851555L0.35176 10.1002C0.239843 10.2112 0.151113 10.3434 0.0907265 10.489C0.03034 10.6346 -0.000497585 10.7908 6.07128e-06 10.9484V14.3C6.07128e-06 14.6183 0.126436 14.9235 0.351482 15.1485C0.576528 15.3736 0.881756 15.5 1.20002 15.5H4.55181C4.70946 15.5005 4.86563 15.4697 5.01125 15.4093C5.15687 15.3489 5.28904 15.2602 5.40007 15.1483L14.6484 5.90036C14.7599 5.78893 14.8483 5.65664 14.9086 5.51103C14.969 5.36543 15 5.20937 15 5.05177C15 4.89417 14.969 4.73811 14.9086 4.5925C14.8483 4.4469 14.7599 4.31461 14.6484 4.20318ZM4.55181 14.3H1.20002V10.9484L7.8001 4.34867L11.1519 7.70029L4.55181 14.3ZM12.0001 6.85133L8.64836 3.50045L10.4484 1.70052L13.8002 5.05139L12.0001 6.85133Z" fill="#666666"/>
</g>
</svg>
