<svg width="27" height="34" viewBox="0 0 27 34" fill="none" xmlns="http://www.w3.org/2000/svg">
<path d="M10.3333 25.3334L9.27269 24.2727L8.21203 25.3334L9.27269 26.394L10.3333 25.3334ZM2.26402 20.25C2.67823 20.9675 3.59561 21.2133 4.31305 20.7991C5.03049 20.3848 5.27631 19.4675 4.86209 18.75L2.26402 20.25ZM13.6667 23.8333C12.8383 23.8333 12.1667 24.5049 12.1667 25.3333C12.1667 26.1618 12.8383 26.8333 13.6667 26.8333V23.8333ZM15.9394 17.606L9.27269 24.2727L11.394 26.394L18.0607 19.7273L15.9394 17.606ZM9.27269 26.394L15.9394 33.0607L18.0607 30.9394L11.394 24.2727L9.27269 26.394ZM4.86209 18.75C3.74308 16.8118 3.29487 14.5586 3.58699 12.3397L0.612659 11.9481C0.234338 14.8217 0.814798 17.7399 2.26402 20.25L4.86209 18.75ZM3.58699 12.3397C3.87912 10.1208 4.89524 8.06029 6.47776 6.47776L4.35644 4.35644C2.30694 6.40595 0.990981 9.07445 0.612659 11.9481L3.58699 12.3397ZM6.47776 6.47776C8.06029 4.89524 10.1208 3.87912 12.3397 3.58699L11.9481 0.612659C9.07445 0.990981 6.40595 2.30694 4.35644 4.35644L6.47776 6.47776ZM12.3397 3.58699C14.5586 3.29487 16.8118 3.74308 18.75 4.86209L20.25 2.26402C17.7399 0.814798 14.8217 0.234338 11.9481 0.612659L12.3397 3.58699ZM18.75 4.86209C20.6882 5.98111 22.203 7.7084 23.0595 9.77607L25.8311 8.62802C24.7219 5.95021 22.7601 3.71323 20.25 2.26402L18.75 4.86209ZM23.0595 9.77607C23.9159 11.8437 24.0662 14.1362 23.4869 16.298L26.3847 17.0745C27.1349 14.2748 26.9403 11.3058 25.8311 8.62802L23.0595 9.77607ZM23.4869 16.298C22.9077 18.4598 21.6313 20.37 19.8558 21.7324L21.682 24.1125C23.9815 22.348 25.6345 19.8741 26.3847 17.0745L23.4869 16.298ZM19.8558 21.7324C18.0802 23.0949 15.9047 23.8333 13.6667 23.8333V26.8333C16.5651 26.8333 19.3826 25.877 21.682 24.1125L19.8558 21.7324Z" fill="white"/>
</svg>
