<svg width="22" height="22" viewBox="0 0 22 22" fill="none" xmlns="http://www.w3.org/2000/svg">
<g id="Frame">
<path id="Vector" d="M8.93749 7.5625C8.39359 7.5625 7.8619 7.40122 7.40967 7.09904C6.95743 6.79687 6.60496 6.36738 6.39682 5.86488C6.18868 5.36238 6.13422 4.80945 6.24033 4.276C6.34644 3.74256 6.60835 3.25255 6.99294 2.86796C7.37754 2.48336 7.86754 2.22145 8.40099 2.11534C8.93444 2.00923 9.48737 2.06369 9.98987 2.27183C10.4924 2.47997 10.9219 2.83245 11.224 3.28468C11.5262 3.73692 11.6875 4.2686 11.6875 4.8125C11.6875 5.54185 11.3978 6.24132 10.882 6.75705C10.3663 7.27277 9.66683 7.5625 8.93749 7.5625ZM8.93749 3.4375C8.66554 3.4375 8.39969 3.51814 8.17358 3.66923C7.94746 3.82032 7.77122 4.03506 7.66715 4.28631C7.56308 4.53756 7.53585 4.81403 7.58891 5.08075C7.64196 5.34747 7.77292 5.59248 7.96521 5.78477C8.15751 5.97707 8.40251 6.10803 8.66924 6.16108C8.93596 6.21414 9.21243 6.18691 9.46368 6.08284C9.71493 5.97877 9.92967 5.80253 10.0808 5.57641C10.2318 5.35029 10.3125 5.08445 10.3125 4.8125C10.3125 4.44783 10.1676 4.09809 9.90976 3.84023C9.6519 3.58237 9.30216 3.4375 8.93749 3.4375ZM3.15303 12.0897C3.20546 12.1138 3.79671 12.3716 4.84342 12.3716C6.03366 12.3716 7.81257 12.0381 10.059 10.6528C10.4009 11.6234 10.8448 12.5551 11.3833 13.432C10.4161 13.7298 9.50633 14.1892 8.69256 14.7907C7.05374 16.0402 6.18749 17.8191 6.18749 19.9375C6.18749 20.1198 6.25992 20.2947 6.38885 20.4236C6.51778 20.5526 6.69265 20.625 6.87499 20.625C7.05732 20.625 7.23219 20.5526 7.36112 20.4236C7.49005 20.2947 7.56249 20.1198 7.56249 19.9375C7.56249 16.3539 10.5437 15.064 12.2151 14.6223C12.2624 14.6824 12.3114 14.7434 12.3604 14.8027C14.0482 16.848 16.1631 17.912 18.5161 17.912C18.7841 17.9132 19.052 17.9009 19.3187 17.875C19.5011 17.8568 19.6687 17.7668 19.7847 17.625C19.9008 17.4832 19.9557 17.3011 19.9375 17.1188C19.9193 16.9364 19.8293 16.7688 19.6875 16.6528C19.5457 16.5367 19.3636 16.4818 19.1812 16.5C16.9537 16.7217 15.0158 15.8563 13.4234 13.9219C12.3501 12.6208 11.6187 11.0335 11.2535 9.88281C14.5982 7.93633 16.7346 9.5932 16.7578 9.61125C16.8278 9.67105 16.9092 9.71617 16.997 9.74394C17.0848 9.7717 17.1773 9.78154 17.2689 9.77287C17.3606 9.7642 17.4496 9.73721 17.5307 9.69348C17.6117 9.64975 17.6832 9.59019 17.7408 9.51832C17.7983 9.44646 17.8409 9.36375 17.8659 9.27512C17.8909 9.18649 17.8979 9.09374 17.8863 9.00238C17.8748 8.91101 17.845 8.82289 17.7988 8.74325C17.7526 8.66361 17.6908 8.59406 17.6172 8.53875C17.4883 8.43563 14.4186 6.04656 9.92491 9.10336C6.01733 11.7597 3.74342 10.8488 3.72194 10.8384C3.63957 10.7995 3.5503 10.7774 3.4593 10.7733C3.36831 10.7692 3.2774 10.7832 3.19188 10.8146C3.10635 10.8459 3.02789 10.8939 2.96108 10.9558C2.89426 11.0177 2.84042 11.0923 2.80267 11.1752C2.76492 11.2581 2.74402 11.3477 2.74119 11.4387C2.73836 11.5298 2.75364 11.6205 2.78616 11.7055C2.81868 11.7906 2.86778 11.8684 2.93061 11.9343C2.99345 12.0003 3.06962 12.0531 3.15303 12.0897Z" fill="#00C4B8" stroke="#00C4B8" stroke-width="0.2"/>
</g>
</svg>