<svg width="36" height="34" viewBox="0 0 36 34" fill="none" xmlns="http://www.w3.org/2000/svg">
<g id="Group 547">
<path id="Vector" d="M31.0203 31.9986H22.3096L3.09453 15.2289C2.74925 14.9281 2.47381 14.5634 2.28547 14.1578C2.09713 13.7523 1.99994 13.3145 2 12.872C2.00573 12.0209 2.36587 11.2056 3.00332 10.6009L11.5619 2.57311C11.7578 2.38208 11.9946 2.23234 12.2567 2.13384C12.5187 2.03533 12.8001 1.9903 13.0821 2.00174C13.3522 1.99984 13.62 2.04842 13.8699 2.14466C14.1198 2.24089 14.3468 2.38286 14.5378 2.56231C14.7288 2.74176 14.8799 2.95509 14.9823 3.18991C15.0847 3.42473 15.1364 3.67635 15.1344 3.93011C15.1328 4.18319 15.1859 4.43393 15.2904 4.66717C15.3949 4.90042 15.5487 5.11132 15.7424 5.28712L16.9434 6.42985C18.5784 7.95988 20.7926 8.81781 23.1001 8.81532H25.2892L27.4934 16.0717C27.712 16.7669 28.1202 17.3962 28.6775 17.8974C29.2348 18.3985 29.9219 18.754 30.6706 18.9286C31.623 19.152 32.4683 19.6686 33.0717 20.3961C33.6751 21.1236 34.0019 22.0201 33.9998 22.9424V29.2561C34.0041 29.6222 33.9295 29.9854 33.7805 30.3237C33.6315 30.662 33.4112 30.9685 33.1329 31.2248C32.8545 31.481 32.5238 31.6816 32.1608 31.8146C31.7977 31.9476 31.4097 32.0102 31.0203 31.9986Z" stroke="white" stroke-width="2.4" stroke-miterlimit="10"/>
<path id="Vector_2" d="M34.0001 26.4445H25.4242L5.42871 8.66675" stroke="white" stroke-width="2.4" stroke-miterlimit="10"/>
<path id="Vector_3" d="M26 7.5555V4.22217" stroke="white" stroke-width="2.4" stroke-miterlimit="10"/>
<path id="Vector_4" d="M22.5713 13.1111H27.1427" stroke="white" stroke-width="2.4" stroke-miterlimit="10"/>
<path id="Vector_5" d="M23.7144 18.6667H29.4286" stroke="white" stroke-width="2.4" stroke-miterlimit="10"/>
</g>
</svg>
