<svg width="24" height="24" viewBox="0 0 24 24" fill="none" xmlns="http://www.w3.org/2000/svg">
<g id="Frame" clip-path="url(#clip0_183_1464)">
<g id="shop">
<path id="Vector" d="M7.22995 6.27002V11.52C7.22995 12.1539 6.97815 12.7618 6.52994 13.21C6.08172 13.6582 5.47382 13.91 4.83995 13.91C4.20608 13.91 3.59818 13.6582 3.14997 13.21C2.70175 12.7618 2.44995 12.1539 2.44995 11.52L4.35995 6.27002H7.22995Z" stroke="#666666" stroke-width="2" stroke-miterlimit="10" stroke-linecap="square"/>
<path id="Vector_2" d="M12.0001 6.27002V11.52C12.0212 11.8462 11.9752 12.1733 11.8649 12.481C11.7546 12.7887 11.5824 13.0705 11.3589 13.309C11.1353 13.5475 10.8652 13.7376 10.5653 13.8675C10.2654 13.9975 9.94197 14.0645 9.6151 14.0645C9.28822 14.0645 8.96482 13.9975 8.66489 13.8675C8.36496 13.7376 8.09488 13.5475 7.87134 13.309C7.6478 13.0705 7.47556 12.7887 7.36526 12.481C7.25497 12.1733 7.20897 11.8462 7.2301 11.52V6.27002H12.0001Z" stroke="#666666" stroke-width="2" stroke-miterlimit="10" stroke-linecap="square"/>
<path id="Vector_3" d="M16.7701 6.27002V11.52C16.7913 11.8462 16.7452 12.1733 16.635 12.481C16.5247 12.7887 16.3524 13.0705 16.1289 13.309C15.9053 13.5475 15.6353 13.7376 15.3353 13.8675C15.0354 13.9975 14.712 14.0645 14.3851 14.0645C14.0582 14.0645 13.7348 13.9975 13.4349 13.8675C13.135 13.7376 12.8649 13.5475 12.6414 13.309C12.4178 13.0705 12.2456 12.7887 12.1353 12.481C12.025 12.1733 11.979 11.8462 12.0001 11.52V6.27002H16.7701Z" stroke="#666666" stroke-width="2" stroke-miterlimit="10" stroke-linecap="square"/>
<path id="Vector_4" d="M21.55 11.52C21.55 12.1539 21.2982 12.7618 20.85 13.21C20.4018 13.6582 19.7939 13.91 19.16 13.91C18.5262 13.91 17.9182 13.6582 17.47 13.21C17.0218 12.7618 16.77 12.1539 16.77 11.52V6.27002H19.64L21.55 11.52Z" stroke="#666666" stroke-width="2" stroke-miterlimit="10" stroke-linecap="square"/>
<path id="Vector_5" d="M19.6401 13.91V22.5H4.36011V13.91H4.84011C5.15397 13.91 5.46475 13.8482 5.75472 13.7281C6.04469 13.608 6.30816 13.4319 6.53009 13.21C6.75202 12.9881 6.92807 12.7246 7.04818 12.4346C7.16829 12.1447 7.23011 11.8339 7.23011 11.52C7.20897 11.8462 7.25498 12.1733 7.36527 12.481C7.47557 12.7887 7.64781 13.0705 7.87135 13.309C8.09489 13.5475 8.36497 13.7376 8.6649 13.8675C8.96483 13.9975 9.28823 14.0645 9.61511 14.0645C9.94198 14.0645 10.2654 13.9975 10.5653 13.8675C10.8652 13.7376 11.1353 13.5475 11.3589 13.309C11.5824 13.0705 11.7546 12.7887 11.8649 12.481C11.9752 12.1733 12.0212 11.8462 12.0001 11.52C11.979 11.8462 12.025 12.1733 12.1353 12.481C12.2456 12.7887 12.4178 13.0705 12.6413 13.309C12.8649 13.5475 13.135 13.7376 13.4349 13.8675C13.7348 13.9975 14.0582 14.0645 14.3851 14.0645C14.712 14.0645 15.0354 13.9975 15.3353 13.8675C15.6352 13.7376 15.9053 13.5475 16.1289 13.309C16.3524 13.0705 16.5246 12.7887 16.6349 12.481C16.7452 12.1733 16.7912 11.8462 16.7701 11.52C16.7701 11.8339 16.8319 12.1447 16.952 12.4346C17.0721 12.7246 17.2482 12.9881 17.4701 13.21C17.6921 13.4319 17.9555 13.608 18.2455 13.7281C18.5355 13.8482 18.8462 13.91 19.1601 13.91H19.6401Z" stroke="#666666" stroke-width="2" stroke-miterlimit="10" stroke-linecap="square"/>
<path id="Vector_6" d="M1.5 22.5H4.36H19.64H22.5" stroke="#666666" stroke-width="2" stroke-miterlimit="10" stroke-linecap="square"/>
<path id="Vector_7" d="M17.72 1.5H6.27002V6.27H17.72V1.5Z" stroke="#666666" stroke-width="2" stroke-miterlimit="10" stroke-linecap="square"/>
<path id="Vector_8" d="M15.8199 17.73H8.17993V22.5H15.8199V17.73Z" stroke="#666666" stroke-width="2" stroke-miterlimit="10" stroke-linecap="square"/>
</g>
</g>
<defs>
<clipPath id="clip0_183_1464">
<rect width="24" height="24" fill="white"/>
</clipPath>
</defs>
</svg>
