<svg width="33" height="34" viewBox="0 0 33 34" fill="none" xmlns="http://www.w3.org/2000/svg">
<path d="M11.0417 23.5C11.0417 24.3284 11.7132 25 12.5417 25C13.3701 25 14.0417 24.3284 14.0417 23.5H11.0417ZM14.0417 18.125C14.0417 17.2966 13.3701 16.625 12.5417 16.625C11.7132 16.625 11.0417 17.2966 11.0417 18.125H14.0417ZM18.2083 23.5C18.2083 24.3284 18.8799 25 19.7083 25C20.5368 25 21.2083 24.3284 21.2083 23.5H18.2083ZM21.2083 18.125C21.2083 17.2966 20.5368 16.625 19.7083 16.625C18.8799 16.625 18.2083 17.2966 18.2083 18.125H21.2083ZM11.6405 1.56722C11.0348 2.13236 11.0019 3.08154 11.567 3.68726C12.1322 4.29299 13.0813 4.32588 13.6871 3.76073L11.6405 1.56722ZM18.5629 3.76073C19.1687 4.32588 20.1178 4.29299 20.683 3.68726C21.2481 3.08154 21.2152 2.13236 20.6095 1.56722L18.5629 3.76073ZM14.0417 23.5V18.125H11.0417V23.5H14.0417ZM21.2083 23.5V18.125H18.2083V23.5H21.2083ZM0 10.6667H32.25V7.66667H0V10.6667ZM22.875 30.9583H9.375V33.9583H22.875V30.9583ZM6.875 28.4583V13.1667H3.875V28.4583H6.875ZM1.375 7.66667H0V10.6667H1.375V7.66667ZM32.25 7.66667H30.875V10.6667H32.25V7.66667ZM25.375 13.1667V28.4583H28.375V13.1667H25.375ZM30.875 7.66667C29.9746 7.66667 29.1484 7.66348 28.4806 7.75327C27.7696 7.84885 27.0182 8.07375 26.4001 8.69179L28.5214 10.8131C28.5224 10.8122 28.5224 10.8122 28.5217 10.8128C28.521 10.8134 28.5205 10.8137 28.5207 10.8136C28.5208 10.8135 28.5225 10.8124 28.5263 10.8104C28.5302 10.8084 28.5368 10.8051 28.5469 10.801C28.5905 10.7831 28.6872 10.7525 28.8803 10.7265C29.3018 10.6699 29.8898 10.6667 30.875 10.6667V7.66667ZM28.375 13.1667C28.375 12.1815 28.3782 11.5934 28.4348 11.172C28.4608 10.9789 28.4914 10.8822 28.5093 10.8386C28.5135 10.8285 28.5167 10.8219 28.5187 10.818C28.5207 10.8142 28.5218 10.8125 28.5219 10.8123C28.522 10.8122 28.5217 10.8127 28.5211 10.8134C28.5206 10.8141 28.5205 10.814 28.5214 10.8131L26.4001 8.69179C25.7821 9.30984 25.5572 10.0613 25.4616 10.7723C25.3718 11.4401 25.375 12.2663 25.375 13.1667H28.375ZM6.875 13.1667C6.875 12.2663 6.87819 11.4401 6.7884 10.7723C6.69281 10.0613 6.46792 9.30984 5.84987 8.69179L3.72855 10.8131C3.72947 10.814 3.72942 10.8141 3.72886 10.8134C3.72829 10.8127 3.72798 10.8122 3.72807 10.8123C3.72818 10.8125 3.72929 10.8142 3.73128 10.818C3.7333 10.8219 3.73653 10.8285 3.74068 10.8386C3.7586 10.8822 3.78919 10.9789 3.81515 11.172C3.87181 11.5934 3.875 12.1815 3.875 13.1667H6.875ZM1.375 10.6667C2.36021 10.6667 2.94823 10.6699 3.36967 10.7265C3.56279 10.7525 3.65951 10.7831 3.70307 10.801C3.71316 10.8051 3.71979 10.8084 3.72366 10.8104C3.72747 10.8124 3.72917 10.8135 3.72933 10.8136C3.72947 10.8137 3.72899 10.8134 3.7283 10.8128C3.72761 10.8122 3.72764 10.8122 3.72855 10.8131L5.84987 8.69179C5.23183 8.07375 4.48038 7.84885 3.76941 7.75327C3.1016 7.66348 2.2754 7.66667 1.375 7.66667V10.6667ZM9.375 30.9583C8.38979 30.9583 7.80177 30.9551 7.38033 30.8985C7.18721 30.8725 7.09049 30.8419 7.04693 30.824C7.03684 30.8199 7.03021 30.8166 7.02634 30.8146C7.02253 30.8126 7.02083 30.8115 7.02067 30.8114C7.02053 30.8113 7.02101 30.8116 7.0217 30.8122C7.02239 30.8128 7.02236 30.8128 7.02145 30.8119L4.90013 32.9332C5.51817 33.5513 6.26962 33.7761 6.98058 33.8717C7.64839 33.9615 8.4746 33.9583 9.375 33.9583V30.9583ZM3.875 28.4583C3.875 29.3587 3.87181 30.1849 3.9616 30.8527C4.05719 31.5637 4.28208 32.3152 4.90013 32.9332L7.02145 30.8119C7.02053 30.811 7.02058 30.8109 7.02114 30.8116C7.02171 30.8123 7.02202 30.8128 7.02193 30.8127C7.02182 30.8125 7.02071 30.8108 7.01872 30.807C7.0167 30.8031 7.01347 30.7965 7.00932 30.7864C6.9914 30.7428 6.96081 30.6461 6.93485 30.453C6.87819 30.0316 6.875 29.4435 6.875 28.4583H3.875ZM22.875 33.9583C23.7754 33.9583 24.6016 33.9615 25.2694 33.8717C25.9804 33.7761 26.7318 33.5513 27.3499 32.9332L25.2286 30.8119C25.2276 30.8128 25.2276 30.8128 25.2283 30.8122C25.229 30.8116 25.2295 30.8113 25.2293 30.8114C25.2292 30.8115 25.2275 30.8126 25.2237 30.8146C25.2198 30.8166 25.2132 30.8199 25.2031 30.824C25.1595 30.8419 25.0628 30.8725 24.8697 30.8985C24.4482 30.9551 23.8602 30.9583 22.875 30.9583V33.9583ZM25.375 28.4583C25.375 29.4435 25.3718 30.0316 25.3152 30.453C25.2892 30.6461 25.2586 30.7428 25.2407 30.7864C25.2365 30.7965 25.2333 30.8031 25.2313 30.807C25.2293 30.8108 25.2282 30.8125 25.2281 30.8127C25.228 30.8128 25.2283 30.8123 25.2289 30.8116C25.2294 30.8109 25.2295 30.811 25.2286 30.8119L27.3499 32.9332C27.9679 32.3152 28.1928 31.5637 28.2884 30.8527C28.3782 30.1849 28.375 29.3587 28.375 28.4583H25.375ZM13.6871 3.76073C13.623 3.82049 13.5794 3.84297 13.5857 3.83947C13.5887 3.8378 13.6147 3.82418 13.6712 3.80302C13.7864 3.7599 13.9692 3.70755 14.2262 3.65826L13.661 0.711982C13.2921 0.78274 12.9371 0.874574 12.6199 0.99325C12.3286 1.10225 11.9526 1.27595 11.6405 1.56722L13.6871 3.76073ZM14.2262 3.65826C14.74 3.5597 15.4096 3.5 16.125 3.5V0.5C15.2627 0.5 14.3988 0.570444 13.661 0.711982L14.2262 3.65826ZM16.125 3.5C16.8404 3.5 17.51 3.5597 18.0238 3.65826L18.589 0.711981C17.8512 0.570444 16.9873 0.5 16.125 0.5V3.5ZM18.0238 3.65826C18.2808 3.70755 18.4636 3.7599 18.5788 3.80302C18.6353 3.82418 18.6613 3.8378 18.6643 3.83947C18.6706 3.84297 18.627 3.82049 18.5629 3.76073L20.6095 1.56722C20.2973 1.27595 19.9214 1.10225 19.6301 0.993249C19.3129 0.874573 18.9578 0.78274 18.589 0.711981L18.0238 3.65826Z" fill="white"/>
</svg>
